<svg width="15" height="14" viewBox="0 0 15 14" fill="none" xmlns="http://www.w3.org/2000/svg">
<path d="M12.7934 5.26609C12.4241 4.39871 11.8475 3.63525 11.1142 3.04274C10.381 2.45022 9.51347 2.04676 8.58788 1.86778L9.424 0.53L8.576 0L7.47272 1.76525C6.3489 1.77046 5.25123 2.10481 4.31533 2.72698C3.37943 3.34915 2.64632 4.23187 2.20656 5.26609C1.61752 5.27729 1.05638 5.51915 0.643766 5.93968C0.231151 6.36021 0 6.92585 0 7.515C0 8.10415 0.231151 8.66979 0.643766 9.09032C1.05638 9.51085 1.61752 9.75271 2.20656 9.76391C2.64819 10.8024 3.38552 11.688 4.32675 12.3105C5.26798 12.9331 6.37153 13.265 7.5 13.265C8.62848 13.265 9.73203 12.9331 10.6733 12.3105C11.6145 11.688 12.3518 10.8024 12.7934 9.76391C13.3825 9.75271 13.9436 9.51085 14.3562 9.09032C14.7689 8.66979 15 8.10415 15 7.515C15 6.92585 14.7689 6.36021 14.3562 5.93968C13.9436 5.51915 13.3825 5.27729 12.7934 5.26609ZM13.6419 8.39031C13.4132 8.62422 13.1015 8.75853 12.7744 8.76409L12.1268 8.77641L11.8733 9.37247C11.5085 10.2305 10.8993 10.9622 10.1217 11.4766C9.34411 11.991 8.43236 12.2653 7.50002 12.2653C6.56767 12.2653 5.65593 11.991 4.87831 11.4766C4.1007 10.9622 3.49157 10.2305 3.12678 9.37247L2.87322 8.77641L2.22556 8.76409C1.89833 8.75797 1.58657 8.62368 1.35732 8.39009C1.12806 8.15651 0.99963 7.84229 0.99963 7.515C0.99963 7.18771 1.12806 6.87349 1.35732 6.63991C1.58657 6.40632 1.89833 6.27203 2.22556 6.26591L2.87322 6.25359L3.12678 5.65753C3.49158 4.79952 4.10071 4.06778 4.87832 3.55342C5.65594 3.03905 6.56768 2.7648 7.50002 2.7648C8.43235 2.7648 9.3441 3.03905 10.1217 3.55342C10.8993 4.06778 11.5085 4.79952 11.8733 5.65753L12.1268 6.25359L12.7744 6.26591C13.0185 6.27052 13.2559 6.34654 13.4572 6.48458C13.6585 6.62262 13.815 6.81663 13.9073 7.04262C13.9996 7.26862 14.0236 7.5167 13.9765 7.75621C13.9293 7.99573 13.813 8.21618 13.6419 8.39031V8.39031Z" fill="black"/>
<path d="M4.75 6.26465H6V7.51465H4.75V6.26465ZM9 6.26465H10.25V7.51465H9V6.26465ZM7.5 11.0146C7.8283 11.0146 8.15339 10.95 8.45671 10.8243C8.76002 10.6987 9.03562 10.5146 9.26777 10.2824C9.49991 10.0503 9.68406 9.77467 9.8097 9.47136C9.93534 9.16804 10 8.84295 10 8.51465H5C5 8.84295 5.06466 9.16804 5.1903 9.47136C5.31594 9.77467 5.50009 10.0503 5.73223 10.2824C6.20107 10.7513 6.83696 11.0146 7.5 11.0146V11.0146Z" fill="black"/>
</svg>
