<svg width="15" height="12" viewBox="0 0 15 12" fill="none" xmlns="http://www.w3.org/2000/svg">
<path d="M12.975 0.475C12.675 0.175 12.15 0.175 11.775 0.475L9.975 2.275C9.1828 1.98092 8.34501 1.8286 7.5 1.825C4.65 1.9 2.1 3.4 0.75 5.875C0.9 6.175 1.125 6.475 1.35 6.775C1.95 7.6 2.7 8.275 3.525 8.8L2.25 10.075C1.95 10.375 1.875 10.9 2.25 11.275C2.55 11.575 3.075 11.65 3.45 11.275L12.975 1.675C13.275 1.3 13.275 0.775 12.975 0.475ZM5.025 7.225L4.05 8.2C3.15 7.675 2.325 6.925 1.725 6.025C2.625 4.75 3.825 3.85 5.25 3.4C4.275 4.45 4.2 6.1 5.025 7.225ZM7.575 4.75C7.2 4.375 7.275 3.775 7.65 3.4C8.025 3.1 8.55 3.1 8.925 3.4L7.575 4.75ZM13.725 5.125C13.35 4.6 12.9 4.075 12.375 3.7L11.625 4.45C12.225 4.9 12.75 5.425 13.2 6.1C11.925 8.05 9.75 9.25 7.425 9.25H6.825L6.075 10C6.6 9.925 7.05 10 7.5 10C9.975 10 12.3 8.8 13.725 6.775C13.95 6.475 14.1 6.175 14.325 5.875C14.1 5.65 13.95 5.35 13.725 5.125ZM10.5 5.5L7.5 8.5C9.15 8.5 10.5 7.15 10.5 5.5Z" fill="black"/>
</svg>
