<svg width="377" height="140" viewBox="0 0 377 140" fill="none" xmlns="http://www.w3.org/2000/svg">
<path fill-rule="evenodd" clip-rule="evenodd" d="M198.791 117.284V82.8139L158.698 67.2916L179.741 46.8665L152.163 22.4163L144.341 37.3819L144.641 22.9943L109.692 34.1489L110.592 52.9041L116.527 51.3626L122.699 117.541L147.341 113.923L147.299 91.8275L198.791 117.284Z" fill="#0B0000"/>
<path fill-rule="evenodd" clip-rule="evenodd" d="M116.27 38.9662L137.506 32.6502L138.813 54.5099L154.456 32.5646L169.734 47.102L148.37 69.6039L192.341 87.0103V107.029L141.256 81.4865L141.342 108.249L128.12 110.047L122.485 43.0983L116.528 44.6399L116.27 38.9662Z" fill="white"/>
<path fill-rule="evenodd" clip-rule="evenodd" d="M277.283 25.7134H254.141L253.476 29.503H229.134L217.755 99.0213L245.527 103.389L247.048 93.4119L254.312 106.793L258.726 98.2505L260.355 112.274L291.833 117.819L277.283 25.7134Z" fill="#0B0000"/>
<path fill-rule="evenodd" clip-rule="evenodd" d="M260.226 32.1364H272.012L283.947 109.576L266.547 106.922L261.919 76.2838L255.383 93.1763L245.569 72.0661H245.462L241.583 96.5377L225.276 93.6902L234.983 35.7119H251.483L255.598 58.1924L260.226 32.1364Z" fill="white"/>
<path fill-rule="evenodd" clip-rule="evenodd" d="M306.747 32.0508L341.568 39.6942L344.161 52.5402L346.968 40.9573L376.604 48.1297L348.147 133.791L326.311 126.919L326.14 118.333L305.183 115.4L312.254 52.5402L307.004 51.3626L306.747 32.0508Z" fill="#0B0000"/>
<path fill-rule="evenodd" clip-rule="evenodd" d="M312.94 40.0795L335.633 44.6399L343.283 80.8228L351.104 48.3866L368.375 52.219L344.054 125.827L331.968 122.208L330.918 77.7183L324.833 112.039L311.654 109.962L317.569 47.6373L312.597 46.3098L312.94 40.0795Z" fill="white"/>
<path fill-rule="evenodd" clip-rule="evenodd" d="M303.405 105.509C295.883 108.335 287.891 108.013 281.462 104.588C275.505 101.441 271.348 95.9811 269.741 89.2369C266.526 75.7914 275.419 60.4405 289.562 55.0237C297.169 52.1548 305.226 52.4973 311.697 55.9444C317.59 59.0702 321.704 64.4013 323.269 70.9528C326.547 84.5909 317.655 100.092 303.405 105.509Z" fill="#0B0000"/>
<path fill-rule="evenodd" clip-rule="evenodd" d="M317.761 72.1945C315.19 61.4039 303.661 55.9871 291.833 60.4404C280.369 64.8295 272.847 77.2259 275.44 88.0165C278.097 99.1497 289.519 104.545 301.347 100.092C312.897 95.7241 320.418 83.2421 317.761 72.1945Z" fill="white"/>
<path fill-rule="evenodd" clip-rule="evenodd" d="M309.169 74.1C308.933 80.052 303.747 84.5481 297.404 84.2912C291.169 84.0342 286.369 79.1528 286.605 73.2008C286.84 67.6128 292.004 63.1167 298.347 63.3736C304.604 63.6305 309.404 68.512 309.169 74.1Z" fill="#0B0000"/>
<path fill-rule="evenodd" clip-rule="evenodd" d="M301.111 63.6305C297.319 63.4807 294.147 66.0927 293.997 69.454C293.869 72.8154 296.826 75.6844 300.619 75.8342C304.411 75.9841 307.583 73.3721 307.733 70.0107C307.861 66.6493 304.904 63.7804 301.111 63.6305Z" fill="white"/>
<path fill-rule="evenodd" clip-rule="evenodd" d="M111.428 113.002C103.735 116.256 95.3991 116.256 88.5635 112.981C82.2421 109.94 77.6779 104.459 75.7279 97.5012C71.8279 83.6489 80.4207 67.313 94.9063 61.0827C102.685 57.807 111.085 57.807 117.963 61.1255C124.22 64.1229 128.72 69.4969 130.627 76.241C134.613 90.286 125.999 106.793 111.428 113.002Z" fill="#0B0000"/>
<path fill-rule="evenodd" clip-rule="evenodd" d="M125.12 77.0974C121.949 65.8786 109.649 60.6974 97.4347 65.8786C85.5848 70.9742 78.2349 84.2912 81.4063 95.5101C84.6634 107.093 96.8776 112.253 109.092 107.093C121.027 101.997 128.377 88.5732 125.12 77.0974Z" fill="white"/>
<path fill-rule="evenodd" clip-rule="evenodd" d="M116.849 79.2385C116.849 85.1904 111.856 89.8792 105.513 89.8792C99.2777 89.8792 94.2849 85.1904 94.2849 79.2385C94.2849 73.6504 99.2777 68.9402 105.621 68.9402C111.856 68.9402 116.849 73.629 116.849 79.2385Z" fill="#0B0000"/>
<path fill-rule="evenodd" clip-rule="evenodd" d="M108.385 69.0901C104.592 69.0901 101.506 71.8305 101.506 75.1919C101.506 78.5533 104.571 81.2938 108.385 81.2938C112.178 81.2938 115.263 78.5533 115.263 75.1919C115.263 71.8305 112.178 69.0901 108.385 69.0901Z" fill="white"/>
<path fill-rule="evenodd" clip-rule="evenodd" d="M68.978 92.3199C85.5207 80.1805 93.4063 61.8321 87.4278 48.0655C84.8135 42.0493 80.2279 37.0821 74.6136 33.9563C70.6708 31.3442 65.978 29.6957 61.0495 29.139C48.9639 27.0194 34.4568 29.2032 20.1855 35.2623C14.9356 37.4889 10.0285 40.0581 5.61424 42.8628L0 46.3955L3.36426 52.0905L13.8213 69.7538C13.8213 69.7538 17.0356 75.1919 17.057 75.1705L22.7355 72.4086L23.5284 72.0233L49.521 130.023L52.0281 135.59L57.8566 133.727L71.9351 129.231L78.1065 127.261L76.4779 121.009L68.978 92.3199Z" fill="black"/>
<path fill-rule="evenodd" clip-rule="evenodd" d="M81.1494 50.7845C79.0708 46.0101 75.4923 42.2634 70.8209 39.6299C67.4352 37.3819 63.5138 36.2686 59.8496 35.8618C49.4354 34.0419 36.4712 35.7547 22.8213 41.5354C17.9571 43.5908 13.4143 45.9459 9.23572 48.6007L19.6928 66.264C22.3713 64.958 25.2641 63.5663 26.8284 62.7313L55.7353 127.197L69.8138 122.701L61.1353 89.344C77.7851 79.1314 86.185 62.3674 81.1494 50.7845Z" fill="white"/>
<path fill-rule="evenodd" clip-rule="evenodd" d="M229.027 67.7413L219.127 58.8347L223.991 53.6749L228.362 49.0289L224.334 44.0832C216.47 34.4059 203.891 30.5307 190.691 33.7208C172.327 38.1312 161.977 53.9318 166.07 71.2525C167.72 78.2322 172.091 84.2056 178.413 88.0808C185.956 92.7267 195.448 93.9899 205.113 91.6562C215.313 89.1941 222.812 85.062 229.391 78.275L234.662 72.8368L229.027 67.7413Z" fill="#0B0000"/>
<path fill-rule="evenodd" clip-rule="evenodd" d="M213.812 63.5235C211.327 66.4567 208.477 69.1329 203.42 70.3533C201.727 70.7601 199.434 71.1455 197.977 70.8885L219.255 48.2582C213.255 40.8717 203.398 37.4461 192.234 40.1438C178.348 43.4837 168.963 55.0451 172.434 69.7752C175.22 81.615 188.334 88.873 203.548 85.2118C212.762 82.9852 219.169 79.4311 224.912 73.5006L213.812 63.5235Z" fill="white"/>
<path fill-rule="evenodd" clip-rule="evenodd" d="M180.577 29.9954L206.634 0L221.055 21.5171L188.12 39.2017L180.577 29.9954Z" fill="#0B0000"/>
<path fill-rule="evenodd" clip-rule="evenodd" d="M205.52 9.54886L213.148 19.9113L191.356 30.7019L189.834 28.4111L205.52 9.54886Z" fill="white"/>
<path fill-rule="evenodd" clip-rule="evenodd" d="M189.363 63.8661C187.798 61.0186 188.098 57.3574 190.434 54.8097C192.684 52.3475 196.113 51.641 199.048 52.7757L189.363 63.8661ZM190.434 54.8097C188.12 57.3574 187.798 61.0186 189.363 63.8661L199.048 52.7757C196.113 51.641 192.663 52.3475 190.434 54.8097ZM204.427 51.1057C199.455 46.5882 191.784 46.9522 187.263 51.9193C182.741 56.8864 183.106 64.5512 188.077 69.0687C188.484 69.4541 188.934 69.7752 189.384 70.075L205.305 51.9621C205.005 51.6624 204.727 51.3841 204.427 51.1057ZM189.363 63.8661C187.798 61.0186 188.098 57.3574 190.434 54.8097C192.684 52.3475 196.113 51.641 199.048 52.7757L189.363 63.8661Z" fill="black"/>
<path fill-rule="evenodd" clip-rule="evenodd" d="M70.1996 61.8107C68.9568 54.9809 60.064 51.1485 51.1498 55.9229L53.3783 63.759L56.8926 75.3204L58.4997 80.5872C65.1854 76.3695 71.9139 71.2739 70.1996 61.8107ZM61.3497 72.2587C60.3854 69.0901 58.3069 62.2603 58.3069 62.2603C58.3283 62.3031 57.8783 60.783 57.4069 59.0916C59.2926 58.749 61.0925 58.9203 62.5925 59.6483C63.4282 60.055 64.8639 60.9757 65.1639 62.7313C65.8711 66.6493 64.5211 69.454 61.3497 72.2587Z" fill="black"/>
<path fill-rule="evenodd" clip-rule="evenodd" d="M74.0137 139.765C74.0351 139.829 74.0565 139.872 74.078 139.936C74.078 139.957 74.0994 139.979 74.0994 140C74.078 139.914 74.0351 139.85 74.0137 139.765Z" fill="black"/>
<path fill-rule="evenodd" clip-rule="evenodd" d="M354.425 126.019H360.832V126.961H358.175V133.92H357.082V126.961H354.425V126.019Z" fill="black"/>
<path fill-rule="evenodd" clip-rule="evenodd" d="M361.776 133.92V126.019H363.318L365.59 132.699L367.84 126.019H369.361V133.92H368.354V129.252C368.354 129.081 368.354 128.824 368.375 128.46C368.375 128.096 368.375 127.689 368.375 127.261L366.125 133.92H365.075L362.804 127.261V127.497C362.804 127.689 362.804 127.989 362.826 128.374C362.826 128.76 362.847 129.059 362.847 129.252V133.92H361.776V133.92Z" fill="black"/>
</svg>
